<svg width="32" height="31" viewBox="0 0 32 31" fill="none" xmlns="http://www.w3.org/2000/svg">
<path d="M30.9696 9.11409C30.897 7.46694 30.6306 6.33453 30.2491 5.35329C29.8554 4.31173 29.2499 3.37922 28.4564 2.60402C27.6812 1.81676 26.7426 1.20502 25.7131 0.817542C24.7262 0.435975 23.5997 0.169612 21.9525 0.0969885C20.2931 0.0182149 19.7663 0 15.5575 0C11.3486 0 10.8218 0.0182149 9.16852 0.0908381C7.52137 0.163461 6.38897 0.430061 5.40797 0.811392C4.36617 1.20502 3.43366 1.81061 2.65846 2.60402C1.8712 3.37922 1.2597 4.31788 0.871985 5.34738C0.490418 6.33454 0.224055 7.46078 0.151432 9.10793C0.0726582 10.7674 0.0544434 11.2942 0.0544434 15.503C0.0544434 19.7119 0.0726582 20.2387 0.145281 21.892C0.217904 23.5391 0.484504 24.6715 0.866071 25.6528C1.2597 26.6943 1.8712 27.6268 2.65846 28.402C3.43366 29.1893 4.37232 29.801 5.40182 30.1885C6.38897 30.5701 7.51522 30.8364 9.1626 30.9091C10.8157 30.9819 11.3427 30.9999 15.5515 30.9999C19.7604 30.9999 20.2872 30.9819 21.9405 30.9091C23.5876 30.8364 24.72 30.5701 25.701 30.1885C27.7844 29.383 29.4315 27.7359 30.237 25.6528C30.6183 24.6656 30.8849 23.5391 30.9576 21.892C31.0302 20.2387 31.0484 19.7119 31.0484 15.503C31.0484 11.2942 31.0422 10.7674 30.9696 9.11409ZM28.178 21.7709C28.1113 23.2848 27.857 24.1024 27.645 24.6474C27.1241 25.9979 26.0523 27.0697 24.7018 27.5906C24.1568 27.8026 23.3333 28.0569 21.8253 28.1234C20.1902 28.1962 19.6998 28.2142 15.5636 28.2142C11.4274 28.2142 10.9309 28.1962 9.3017 28.1234C7.78773 28.0569 6.97019 27.8026 6.42516 27.5906C5.7531 27.3423 5.14137 26.9486 4.64483 26.4339C4.13009 25.9312 3.73645 25.3256 3.48807 24.6535C3.27611 24.1085 3.02182 23.2848 2.95534 21.777C2.88248 20.1419 2.86451 19.6513 2.86451 15.5151C2.86451 11.3789 2.88248 10.8824 2.95534 9.25342C3.02182 7.73945 3.27611 6.92191 3.48807 6.37688C3.73645 5.70458 4.13009 5.09308 4.65098 4.59631C5.15343 4.08156 5.75902 3.68793 6.43131 3.43978C6.97634 3.22783 7.80003 2.97353 9.30785 2.90682C10.9429 2.83419 11.4336 2.81598 15.5695 2.81598C19.7119 2.81598 20.2022 2.83419 21.8314 2.90682C23.3454 2.97353 24.1629 3.22783 24.708 3.43978C25.38 3.68793 25.9917 4.08156 26.4883 4.59631C27.003 5.099 27.3967 5.70458 27.645 6.37688C27.857 6.92191 28.1113 7.74536 28.178 9.25342C28.2506 10.8885 28.2688 11.3789 28.2688 15.5151C28.2688 19.6513 28.2506 20.1358 28.178 21.7709Z" fill="white"/>
<path d="M15.5575 7.53955C11.1611 7.53955 7.59402 11.1064 7.59402 15.503C7.59402 19.8997 11.1611 23.4665 15.5575 23.4665C19.9541 23.4665 23.521 19.8997 23.521 15.503C23.521 11.1064 19.9541 7.53955 15.5575 7.53955ZM15.5575 20.6687C12.7053 20.6687 10.3918 18.3554 10.3918 15.503C10.3918 12.6506 12.7053 10.3373 15.5575 10.3373C18.4099 10.3373 20.7232 12.6506 20.7232 15.503C20.7232 18.3554 18.4099 20.6687 15.5575 20.6687Z" fill="white"/>
<path d="M25.6952 7.22532C25.6952 8.25198 24.8627 9.08443 23.8358 9.08443C22.8091 9.08443 21.9767 8.25198 21.9767 7.22532C21.9767 6.19842 22.8091 5.36621 23.8358 5.36621C24.8627 5.36621 25.6952 6.19842 25.6952 7.22532Z" fill="white"/>
</svg>
